<?xml version="1.0" encoding="UTF-8"?>
<svg id="Layer_2" data-name="Layer 2" xmlns="http://www.w3.org/2000/svg" viewBox="0 0 405.04 257.42">
  <defs>
    <style>
      .cls-1 {
        fill: #fff;
      }
    </style>
  </defs>
  <g id="Layer_1-2" data-name="Layer 1">
    <g>
      <path class="cls-1" d="M87.4,257.42c-18.12,0-33.73-4.28-46.82-12.85-13.1-8.57-23.13-19.7-30.11-33.42-6.98-13.71-10.47-28.03-10.47-42.96,0-19.09,3.86-34.76,11.57-47,7.71-12.24,17.56-21.36,29.56-27.36,11.99-6,24.48-9,37.46-9,6.12,0,12.36.68,18.73,2.02,6.36,1.35,12.36,3.61,17.99,6.79-.98-10.52-3.12-20.87-6.43-31.03-3.3-10.16-4.96-20.5-4.96-31.03s3.31-18.73,9.92-23.87c6.61-5.14,13.71-7.71,21.3-7.71,8.81,0,16.4,2.82,22.77,8.45,6.36,5.63,11.81,13.1,16.34,22.4,4.53,9.31,8.14,19.77,10.83,31.4,2.69,11.63,4.65,23.56,5.88,35.8,1.22,12.24,1.84,24,1.84,35.25,0,3.67-.18,9.31-.55,16.89-.37,7.59-1.53,16.04-3.49,25.34-1.96,9.31-5.08,18.73-9.36,28.28-4.29,9.55-10.28,18.36-17.99,26.44s-17.57,14.63-29.56,19.65c-12,5.02-26.81,7.53-44.43,7.53ZM89.6,199.4c6.61,0,12.36-2.51,17.26-7.53,4.89-5.01,7.34-10.95,7.34-17.81s-2.45-12.85-7.34-17.99c-4.9-5.14-10.65-7.71-17.26-7.71s-12.43,2.57-17.44,7.71c-5.02,5.14-7.53,11.14-7.53,17.99s2.51,12.79,7.53,17.81c5.02,5.02,10.83,7.53,17.44,7.53Z"/>
      <path class="cls-1" d="M255.21,256.68c-12.49,0-21.79-4.71-27.91-14.14-6.12-9.42-10.16-23.62-12.12-42.6-1.96-18.97-2.94-42.78-2.94-71.42,0-18.85.3-36.11.92-51.78.61-15.66,2.26-29.19,4.96-40.58,2.69-11.38,6.98-20.2,12.85-26.44,5.88-6.24,14.07-9.36,24.6-9.36s18.73,3.12,24.6,9.36c5.88,6.24,10.16,15.06,12.85,26.44,2.69,11.38,4.34,24.91,4.96,40.58.61,15.67.92,32.93.92,51.78,0,43.09-3,75.22-9,96.39-6,21.18-17.57,31.76-34.7,31.76Z"/>
      <path class="cls-1" d="M361.34,256.68c-12.49,0-21.79-4.71-27.91-14.14-6.12-9.42-10.16-23.62-12.12-42.6-1.96-18.97-2.94-42.78-2.94-71.42,0-18.85.3-36.11.92-51.78.61-15.66,2.26-29.19,4.96-40.58,2.69-11.38,6.98-20.2,12.85-26.44,5.88-6.24,14.07-9.36,24.6-9.36s18.73,3.12,24.6,9.36c5.88,6.24,10.16,15.06,12.85,26.44,2.69,11.38,4.34,24.91,4.96,40.58.61,15.67.92,32.93.92,51.78,0,43.09-3,75.22-9,96.39-6,21.18-17.57,31.76-34.7,31.76Z"/>
    </g>
  </g>
</svg>