<?xml version="1.0" encoding="UTF-8"?>
<svg id="Layer_2" data-name="Layer 2" xmlns="http://www.w3.org/2000/svg" viewBox="0 0 958.06 257.42">
  <defs>
    <style>
      .cls-1 {
        fill: #fff;
      }
    </style>
  </defs>
  <g id="Layer_1-2" data-name="Layer 1">
    <g>
      <path class="cls-1" d="M87.4,257.42c-18.12,0-33.73-4.28-46.82-12.85-13.1-8.57-23.13-19.7-30.11-33.42-6.98-13.71-10.47-28.03-10.47-42.96,0-19.1,3.86-34.76,11.57-47,7.71-12.24,17.56-21.36,29.56-27.36,11.99-6,24.48-9,37.46-9,6.12,0,12.36.68,18.73,2.02,6.36,1.35,12.36,3.61,17.99,6.79-.98-10.52-3.12-20.87-6.43-31.03-3.3-10.16-4.96-20.5-4.96-31.03s3.31-18.73,9.92-23.87,13.71-7.71,21.3-7.71c8.81,0,16.4,2.82,22.77,8.45,6.36,5.63,11.81,13.1,16.34,22.4,4.53,9.31,8.14,19.77,10.83,31.4,2.69,11.63,4.65,23.56,5.88,35.8,1.22,12.24,1.84,24,1.84,35.25,0,3.67-.18,9.31-.55,16.89-.37,7.59-1.53,16.04-3.49,25.34-1.96,9.31-5.08,18.73-9.36,28.28-4.29,9.55-10.28,18.36-17.99,26.44s-17.57,14.63-29.56,19.65c-12,5.02-26.81,7.53-44.43,7.53ZM89.6,199.4c6.61,0,12.36-2.51,17.26-7.53,4.89-5.01,7.34-10.95,7.34-17.81s-2.45-12.85-7.34-17.99c-4.9-5.14-10.65-7.71-17.26-7.71s-12.43,2.57-17.44,7.71c-5.02,5.14-7.53,11.14-7.53,17.99s2.51,12.8,7.53,17.81c5.02,5.02,10.83,7.53,17.44,7.53Z"/>
      <path class="cls-1" d="M297.08,257.42c-18.36,0-34.46-3.61-48.29-10.83-13.83-7.22-24.6-17.13-32.31-29.74-7.71-12.61-11.57-27.11-11.57-43.52s3.86-30.6,11.57-44.07c7.71-13.46,18.36-24.24,31.95-32.31,13.59-8.08,29.19-12.12,46.82-12.12,16.4,0,30.48,3.3,42.23,9.91s20.75,15,26.99,25.15c6.24,10.16,9.36,20.87,9.36,32.13s-2.57,20.51-7.71,27.72c-5.14,7.22-11.81,12.73-20.01,16.52-8.21,3.8-16.96,6.31-26.26,7.53-9.31,1.23-18.24,1.41-26.81.55-8.57-.85-15.79-2.26-21.67-4.22,4.41,7.1,9.97,11.94,16.71,14.51,6.73,2.57,13.83,3.67,21.3,3.3,7.46-.37,14.26-1.16,20.38-2.39,7.58-1.71,13.83-1.34,18.73,1.1,4.89,2.45,7.46,6.37,7.71,11.75.24,4.41-1.29,8.81-4.59,13.22-3.31,4.41-9.24,8.14-17.81,11.2-8.57,3.06-20.81,4.59-36.72,4.59ZM272.48,155.33c2.44,3.92,6,6.67,10.65,8.26,4.65,1.59,9.36,2.15,14.14,1.65,4.77-.49,8.81-1.84,12.12-4.04,3.31-2.2,4.96-5.26,4.96-9.18,0-4.16-1.65-7.9-4.96-11.2s-8.51-4.96-15.61-4.96-12.12,2.15-15.79,6.43c-3.67,4.29-5.51,8.63-5.51,13.04Z"/>
      <path class="cls-1" d="M436.25,256.68c-12.49,0-21.79-4.71-27.91-14.14-6.12-9.42-10.16-23.62-12.12-42.6-1.96-18.97-2.94-42.78-2.94-71.42,0-18.85.3-36.11.92-51.78.61-15.66,2.26-29.19,4.96-40.58,2.69-11.38,6.98-20.2,12.85-26.44S426.09.37,436.62.37s18.73,3.12,24.6,9.36,10.16,15.06,12.85,26.44c2.69,11.38,4.34,24.91,4.96,40.58.61,15.67.92,32.93.92,51.78,0,43.09-3,75.22-9,96.39-6,21.18-17.57,31.76-34.7,31.76Z"/>
      <path class="cls-1" d="M588.28,257.42c-18.12,0-33.85-4.46-47.19-13.4-13.35-8.93-23.63-21.42-30.85-37.46-7.22-16.03-10.83-34.58-10.83-55.63s3.24-36.72,9.73-48.47c6.48-11.75,15.73-17.63,27.73-17.63,8.57,0,15.11,1.59,19.65,4.77,4.53,3.18,7.58,7.16,9.18,11.93,1.59,4.77,2.39,9.86,2.39,15.24,0,6.86-.43,13.83-1.29,20.93-.86,7.1-1.29,14.69-1.29,22.77,0,11.51,2.39,19.89,7.16,25.15,4.77,5.27,9.97,7.9,15.61,7.9,6.12,0,11.44-2.63,15.97-7.9,4.53-5.26,6.79-13.64,6.79-25.15,0-8.08-.37-15.3-1.1-21.67-.73-6.36-1.1-13.59-1.1-21.67,0-8.57,2.08-16.09,6.24-22.58,4.16-6.48,12.49-9.73,24.97-9.73s21.17,5.88,27.54,17.63c6.36,11.75,9.55,27.91,9.55,48.47s-3.3,39.6-9.91,55.63c-6.61,16.04-16.47,28.52-29.56,37.46-13.1,8.94-29.56,13.4-49.39,13.4Z"/>
      <path class="cls-1" d="M737,256.68c-12.49,0-21.79-4.71-27.91-14.14-6.12-9.42-10.16-23.62-12.12-42.6-1.96-18.97-2.94-42.78-2.94-71.42,0-18.85.3-36.11.92-51.78.61-15.66,2.26-29.19,4.96-40.58,2.69-11.38,6.98-20.2,12.85-26.44,5.88-6.24,14.08-9.36,24.6-9.36s18.73,3.12,24.6,9.36c5.88,6.24,10.16,15.06,12.85,26.44,2.69,11.38,4.34,24.91,4.96,40.58.61,15.67.92,32.93.92,51.78,0,43.09-3,75.22-9,96.39-6,21.18-17.57,31.76-34.7,31.76Z"/>
      <path class="cls-1" d="M858.92,257.42c-12,0-22.95-1.84-32.87-5.51-9.92-3.67-17.81-9.24-23.69-16.71-5.88-7.46-8.81-16.95-8.81-28.46,0-9.79,2.94-18.11,8.81-24.97,5.88-6.85,13.77-12.12,23.69-15.79s20.87-5.51,32.87-5.51c7.1,0,13.59.55,19.46,1.65,5.88,1.1,9.92,2.39,12.12,3.86,0-5.63-2.33-10.59-6.98-14.87-4.65-4.28-12.73-6.43-24.24-6.43-5.39,0-9.61.43-12.67,1.29-3.06.86-5.82,1.9-8.26,3.12-2.45,1.23-5.2,2.27-8.26,3.12-3.06.86-7.16,1.29-12.3,1.29-7.59,0-13.65-2.02-18.18-6.06-4.53-4.04-6.79-10.22-6.79-18.54,0-7.58,2.14-14.14,6.43-19.65,4.28-5.51,9.85-10.1,16.71-13.77,6.85-3.67,14.26-6.36,22.22-8.08,7.95-1.71,15.61-2.57,22.95-2.57,21.79,0,39.53,3.98,53.25,11.93,13.71,7.96,23.87,18.3,30.48,31.03,6.61,12.73,9.92,26.57,9.92,41.5,0,8.33-.68,16.04-2.02,23.13-1.35,7.1-3.12,12.61-5.32,16.53,3.42,2.94,6.06,6.37,7.89,10.28,1.84,3.92,2.75,7.96,2.75,12.12,0,6.86-2.27,12.92-6.79,18.18-4.53,5.27-10.96,7.9-19.28,7.9-6.37,0-11.38-.98-15.06-2.94-3.67-1.96-7.34-4.53-11.02-7.71-5.88,3.43-12.36,6.06-19.46,7.9-7.1,1.84-16.28,2.75-27.54,2.75ZM866.26,220.33c5.63,0,9.85-1.16,12.67-3.49,2.81-2.32,4.22-4.96,4.22-7.89s-1.41-5.57-4.22-7.9c-2.82-2.32-7.04-3.49-12.67-3.49s-9.55,1.16-12.49,3.49c-2.94,2.33-4.41,4.96-4.41,7.9s1.47,5.57,4.41,7.89c2.94,2.33,7.1,3.49,12.49,3.49Z"/>
    </g>
  </g>
</svg>